<svg viewBox="0 0 866 716" xmlns="http://www.w3.org/2000/svg"><path filter="url(shadow)" fill-rule="evenodd" clip-rule="evenodd" d="M321.084 713.542C428.287 729.044 381.5 623.696 434.287 594.544C498.41 559.13 846.787 633.59 865.287 536.044C865.287 367.59 639.427 368.903 614.787 297.09C590.9 227.47 544.933 114.521 493.787 61.59C444.832 10.9259 316.787 -45.41 245.287 61.59C193.787 143.09 223.946 182.035 175.843 213.972C124.908 247.789 60.423 265.906 31.5764 319.812C0.314266 378.231 -12.067 452.956 15.7814 513.077C42.8865 571.594 116.991 585.195 170.898 620.591C221.346 653.716 260.733 713.883 321.084 713.542Z"/><defs><filter id="shadow" x="0.287292" y="0.684692" width="865" height="718.405" filterUnits="userSpaceOnUse" color-interpolation-filters="sRGB"><feFlood flood-opacity="0" result="BackgroundImageFix"/><feBlend mode="normal" in="SourceGraphic" in2="BackgroundImageFix" result="shape"/><feColorMatrix in="SourceAlpha" type="matrix" values="0 0 0 0 0 0 0 0 0 0 0 0 0 0 0 0 0 0 127 0" result="hardAlpha"/><feOffset dy="4"/><feGaussianBlur stdDeviation="15"/><feComposite in2="hardAlpha" operator="arithmetic" k2="-1" k3="1"/><feColorMatrix type="matrix" values="0 0 0 0 0 0 0 0 0 0 0 0 0 0 0 0 0 0 1 0"/><feBlend mode="normal" in2="shape" result="effect1_innerShadow_1_798"/></filter></defs></svg>